<svg width="82" height="62" viewBox="0 0 82 62" fill="none" xmlns="http://www.w3.org/2000/svg">
<path d="M0 56.3793H0.721537L0.91512 56.1845C1.00311 56.096 1.14683 55.8865 1.34628 55.5561C1.5516 55.2197 1.73345 54.8568 1.89183 54.4674C2.05022 54.072 2.19394 53.5438 2.323 52.8829C2.45792 52.2161 2.52538 51.508 2.52538 50.7586V46.7665H11.8966V56.3793H13.3396V62H9.90793V59.4596H3.4229V62H0V56.3793ZM5.94828 50.7586C5.94828 51.508 5.88375 52.2132 5.75469 52.8741C5.63151 53.5291 5.48192 54.0631 5.30593 54.4762C5.12995 54.8834 4.95397 55.2404 4.77798 55.5472C4.60786 55.8482 4.45828 56.0636 4.32922 56.1934L4.14444 56.3793H8.47366V49.8557H5.94828V50.7586Z" fill="#3797DD"/>
<path d="M17.8976 53.6707C17.5574 54.0366 17.3873 54.4851 17.3873 55.0161C17.3873 55.5472 17.5574 55.9987 17.8976 56.3704C18.2437 56.7363 18.6426 56.9192 19.0943 56.9192C19.5519 56.9192 19.9508 56.7363 20.291 56.3704C20.6371 55.9987 20.8102 55.5472 20.8102 55.0161C20.8102 54.4851 20.6371 54.0366 20.291 53.6707C19.9508 53.2989 19.5519 53.1131 19.0943 53.1131C18.6426 53.1131 18.2437 53.2989 17.8976 53.6707ZM22.526 51.7853C23.4822 52.7059 23.9603 53.7828 23.9603 55.0161C23.9603 56.2495 23.4822 57.3293 22.526 58.2558C21.5757 59.1764 20.4318 59.6366 19.0943 59.6366C17.7627 59.6366 16.6188 59.1764 15.6626 58.2558C14.7064 57.3293 14.2284 56.2495 14.2284 55.0161C14.2284 53.7828 14.7064 52.7059 15.6626 51.7853C16.6188 50.8589 17.7627 50.3956 19.0943 50.3956C20.4318 50.3956 21.5757 50.8589 22.526 51.7853Z" fill="#3797DD"/>
<path d="M30.7269 57.468L28.7471 54.9276V59.4596H25.6849V50.5727H28.2983L30.7269 53.6619L33.1643 50.5727H35.7777V59.4596H32.7067V54.9276L30.7269 57.468Z" fill="#3797DD"/>
<path d="M43.1602 54.6532L41.8051 56.1934V59.4596H38.3822V46.7665H41.8051V51.6614L45.9496 46.7665H49.918L45.4128 52.0243L50.2788 59.4596H46.3103L43.1602 54.6532Z" fill="#3797DD"/>
<path d="M51.9946 50.5727H59.562V59.4596H56.4998V53.2989H54.784C54.784 54.5323 54.7048 55.5767 54.5464 56.4324C54.3939 57.288 54.1651 57.9519 53.8601 58.424C53.555 58.8961 53.2089 59.2324 52.8218 59.4331C52.4405 59.6337 51.9858 59.734 51.4579 59.734C51.2174 59.734 50.9769 59.7075 50.7363 59.6543C50.4958 59.6071 50.314 59.5658 50.1908 59.5304L50.0148 59.4596V56.7422C50.1967 56.8012 50.3756 56.8307 50.5516 56.8307C50.8859 56.8307 51.147 56.7422 51.3347 56.5652C51.5224 56.3822 51.6779 55.978 51.8011 55.3525C51.9301 54.7211 51.9946 53.8241 51.9946 52.6616V50.5727Z" fill="#3797DD"/>
<path d="M67.9388 50.5727H70.5522V59.4596H67.4901V55.2905L64.34 59.4596H61.7266V50.5727H64.7887V54.7506L67.9388 50.5727Z" fill="#3797DD"/>
<path d="M81.912 50.5727L78.6651 54.3877L82 59.4596H78.6651L76.5973 56.2908L75.7877 57.1936V59.4596H72.7256V50.5727H75.7877V53.6619L78.4011 50.5727H81.912Z" fill="#3797DD"/>
<path fill-rule="evenodd" clip-rule="evenodd" d="M21.9023 40.6066V11.2393L41.0044 0L60.1065 11.2393V21.391L53.9794 27.5545H47.4919V34.4431L41.3648 40.6066H21.9023ZM28.7502 14.5023V34.0805H41.0044V21.391H53.619V14.5023L41.0044 6.88861L28.7502 14.5023Z" fill="#3797DD"/>
</svg>
