<svg width="53" height="57" viewBox="0 0 53 57" fill="none" xmlns="http://www.w3.org/2000/svg">
<path fill-rule="evenodd" clip-rule="evenodd" d="M0 46.0572L2.39282 41.6547H20.8518L28.3721 28.1084H42.729L49.5657 39.6227H28.3721L24.6119 46.0572H0ZM31.4486 32.511L30.0812 35.2202H40.678L39.3107 32.511H31.4486Z" fill="#3797DD"/>
<path fill-rule="evenodd" clip-rule="evenodd" d="M3.41832 38.9454L24.9537 0L37.2597 19.642H21.1936L10.9386 38.9454H3.41832ZM25.2956 10.4983L23.2446 14.5622H27.6884L25.2956 10.4983Z" fill="#3797DD"/>
<path d="M1.14834 49.3062H4.04857C4.75716 49.3062 5.34469 49.5337 5.81115 49.9888C6.2776 50.4438 6.51083 51.0118 6.51083 51.6926C6.51083 52.3699 6.27582 52.9379 5.8058 53.3965C5.33935 53.8516 4.7536 54.0791 4.04857 54.0791H1.97088V56.8942H1.14834V49.3062ZM4.04857 50.0681H1.97088V53.3171H4.04857C4.54352 53.3171 4.94054 53.169 5.23965 52.8726C5.53875 52.5763 5.6883 52.183 5.6883 51.6926C5.6883 51.2023 5.53875 50.8089 5.23965 50.5126C4.94054 50.2163 4.54352 50.0681 4.04857 50.0681Z" fill="#3797DD"/>
<path d="M14.4958 56.8942H13.6786V50.7719L8.97309 56.8942H8.26272V49.3062H9.08526V55.4337L13.7854 49.3062H14.4958V56.8942Z" fill="#3797DD"/>
<path d="M22.0482 50.338C22.8137 51.0965 23.1965 52.0172 23.1965 53.1002C23.1965 54.1832 22.8137 55.1039 22.0482 55.8623C21.2826 56.6208 20.3533 57 19.2601 57C18.872 57 18.4981 56.9471 18.1385 56.8413C17.7788 56.7319 17.4797 56.6014 17.2412 56.4497C17.0026 56.298 16.7925 56.1445 16.6109 55.9893C16.4293 55.8341 16.2976 55.7018 16.2157 55.5925L16.0875 55.4337L16.6323 54.9416C16.6536 54.9769 16.6875 55.0245 16.7337 55.0845C16.7836 55.1409 16.8904 55.2432 17.0542 55.3914C17.218 55.5395 17.3925 55.6718 17.5776 55.7882C17.7664 55.9047 18.0121 56.0105 18.3147 56.1057C18.6174 56.1975 18.9325 56.2433 19.2601 56.2433C20.0898 56.2433 20.7966 55.9752 21.3805 55.439C21.9645 54.8993 22.2974 54.229 22.3793 53.4282H18.3307V52.6663H22.3793C22.2689 51.8867 21.9289 51.2411 21.3592 50.7296C20.7894 50.2145 20.0898 49.957 19.2601 49.957C18.9325 49.957 18.6209 50.0029 18.3254 50.0946C18.0299 50.1828 17.786 50.2904 17.5937 50.4174C17.405 50.5444 17.2394 50.6714 17.0969 50.7984C16.9545 50.9254 16.8513 51.0347 16.7872 51.1264L16.691 51.2587L16.1409 50.7719C16.1694 50.7296 16.2103 50.6749 16.2637 50.6079C16.3207 50.5373 16.4453 50.4121 16.6376 50.2322C16.8335 50.0487 17.0418 49.8865 17.2625 49.7454C17.4868 49.6043 17.7788 49.479 18.1385 49.3697C18.4981 49.2568 18.872 49.2003 19.2601 49.2003C20.3533 49.2003 21.2826 49.5796 22.0482 50.338Z" fill="#3797DD"/>
<path d="M30.5192 49.3062V56.8942H29.702V50.0681H26.4172V51.5815C26.4172 52.6998 26.3691 53.6276 26.273 54.3648C26.1804 55.0986 26.0344 55.6542 25.835 56.0317C25.6392 56.4056 25.4202 56.6613 25.1781 56.7989C24.9395 56.933 24.6422 57 24.2861 57C24.1686 57 24.0511 56.9912 23.9336 56.9735C23.8196 56.9559 23.7324 56.9365 23.6719 56.9153L23.5757 56.8942V56.0793C23.7929 56.1498 23.9923 56.1869 24.1739 56.1904C24.3983 56.1904 24.5888 56.1357 24.7454 56.0264C24.9057 55.917 25.0552 55.7071 25.1941 55.3967C25.333 55.0862 25.4344 54.6153 25.4985 53.9838C25.5662 53.3524 25.6 52.5516 25.6 51.5815V49.3062H30.5192Z" fill="#3797DD"/>
<path d="M31.8919 49.3062H37.5268V50.0681H35.1179V56.8942H34.3007V50.0681H31.8919V49.3062Z" fill="#3797DD"/>
<path d="M39.6792 50.8619C39.0775 51.4651 38.7766 52.2112 38.7766 53.1002C38.7766 53.9891 39.0775 54.7352 39.6792 55.3385C40.281 55.9417 41.0199 56.2433 41.8958 56.2433C42.7717 56.2433 43.5106 55.9417 44.1124 55.3385C44.7141 54.7352 45.015 53.9891 45.015 53.1002C45.015 52.2112 44.7141 51.4651 44.1124 50.8619C43.5106 50.2586 42.7717 49.957 41.8958 49.957C41.0199 49.957 40.281 50.2586 39.6792 50.8619ZM44.6839 50.338C45.4494 51.0965 45.8322 52.0172 45.8322 53.1002C45.8322 54.1832 45.4494 55.1039 44.6839 55.8623C43.9183 56.6208 42.9889 57 41.8958 57C40.8026 57 39.8733 56.6208 39.1077 55.8623C38.3422 55.1039 37.9594 54.1832 37.9594 53.1002C37.9594 52.0172 38.3422 51.0965 39.1077 50.338C39.8733 49.5796 40.8026 49.2003 41.8958 49.2003C42.9889 49.2003 43.9183 49.5796 44.6839 50.338Z" fill="#3797DD"/>
<path d="M47.6375 49.3062H50.5377C51.2463 49.3062 51.8339 49.5337 52.3003 49.9888C52.7668 50.4438 53 51.0118 53 51.6926C53 52.3699 52.765 52.9379 52.295 53.3965C51.8285 53.8516 51.2428 54.0791 50.5377 54.0791H48.46V56.8942H47.6375V49.3062ZM50.5377 50.0681H48.46V53.3171H50.5377C51.0327 53.3171 51.4297 53.169 51.7288 52.8726C52.0279 52.5763 52.1775 52.183 52.1775 51.6926C52.1775 51.2023 52.0279 50.8089 51.7288 50.5126C51.4297 50.2163 51.0327 50.0681 50.5377 50.0681Z" fill="#3797DD"/>
<path d="M22.6952 21.674H38.3536L41.0199 26.0765H26.3211L19.2077 38.9454H13.3559L22.6952 21.674Z" fill="#3797DD"/>
</svg>
