<svg width="107" height="86" viewBox="0 0 107 86" fill="none" xmlns="http://www.w3.org/2000/svg">
<path d="M76.6381 61.3799C76.6323 61.3799 76.6254 61.3799 76.6197 61.3799C76.017 61.3729 75.4616 61.0538 75.1528 60.5364L58.7232 32.9444C58.6771 32.8672 58.6379 32.7877 58.6045 32.7047C56.5557 29.3412 55.4749 25.4867 55.4749 21.5354C55.4956 9.65402 65.1704 0 77.046 0C77.0552 0 77.0633 0 77.0725 0C82.8375 0.00806614 88.2499 2.25967 92.3129 6.33883C96.3736 10.4145 98.6045 15.8327 98.5964 21.5931C98.5964 25.4855 97.5202 29.3193 95.4806 32.7036C95.4414 32.8142 95.3896 32.9202 95.3262 33.0228L78.105 60.5686C77.7869 61.0722 77.2327 61.3799 76.6381 61.3799ZM61.8529 31.443L76.6738 56.3339L92.2023 31.496C92.2415 31.39 92.291 31.2862 92.3521 31.1883C94.175 28.2764 95.1384 24.9578 95.1384 21.5919C95.1384 21.5908 95.1384 21.5907 95.1384 21.5896C95.1464 16.7499 93.2728 12.2006 89.8631 8.77711C86.4523 5.35361 81.9076 3.46383 77.0679 3.45576C77.061 3.45576 77.0529 3.45576 77.0449 3.45576C67.0717 3.45576 58.9479 11.5622 58.9318 21.5377C58.9318 24.9417 59.8893 28.2626 61.6996 31.1388C61.7618 31.2344 61.8125 31.337 61.8529 31.443Z" fill="#999999"/>
<path d="M77.0521 29.6327C77.0463 29.6327 77.0405 29.6327 77.0336 29.6327C74.6 29.6327 72.308 28.6821 70.5853 26.9559C68.8603 25.2275 67.9131 22.9321 67.9177 20.4903C67.92 18.0567 68.8719 15.767 70.598 14.0455C72.3219 12.3274 74.6103 11.3813 77.0452 11.3813C77.0475 11.3813 77.0509 11.3813 77.0544 11.3813C82.0842 11.3871 86.1737 15.487 86.1691 20.5214C86.1668 22.9586 85.215 25.2493 83.4888 26.9709C81.7662 28.6878 79.4811 29.6327 77.0521 29.6327ZM77.044 14.8383C75.5322 14.8383 74.1091 15.4259 73.0386 16.4941C71.9669 17.5623 71.3758 18.9843 71.3747 20.4961C71.3724 22.0137 71.9612 23.4402 73.0328 24.5142C74.1022 25.5858 75.5253 26.1758 77.0371 26.1758C77.0405 26.1758 77.044 26.1758 77.0486 26.1758C78.5604 26.1758 79.9789 25.5893 81.0483 24.5234C82.1199 23.4552 82.711 22.0321 82.7122 20.5191C82.7145 17.3918 80.1748 14.8429 77.0498 14.8394C77.0486 14.8383 77.0463 14.8383 77.044 14.8383ZM84.4407 20.5203H84.4522H84.4407Z" fill="#999999"/>
<path d="M105.272 85.8986H1.72806C1.1473 85.8986 0.605717 85.6071 0.285376 85.122C-0.033813 84.638 -0.0891237 84.025 0.139033 83.4903L18.9735 39.4238C19.2454 38.7878 19.8711 38.3741 20.5625 38.3741H65.0046C65.9599 38.3741 66.7331 39.1473 66.7331 40.1025C66.7331 41.0578 65.9599 41.831 65.0046 41.831H21.7033L4.3461 82.4406H102.653L85.8314 43.0893C85.4557 42.2113 85.8637 41.1961 86.7417 40.8204C87.6163 40.4459 88.635 40.8515 89.0106 41.7308L106.861 83.4892C107.089 84.0238 107.034 84.6368 106.715 85.1208C106.394 85.6071 105.853 85.8986 105.272 85.8986Z" fill="#999999"/>
<path d="M76.8422 85.5886C75.9756 85.5886 75.2278 84.9387 75.1275 84.0561C75.1172 83.9708 74.0133 75.4668 62.1065 73.4468C60.9991 73.259 59.2326 73.0873 57.1862 72.8902C45.9178 71.8002 35.6392 70.3851 33.6572 65.1156C32.3782 61.7163 34.2472 59.1248 35.7475 57.0426C37.3907 54.7633 37.9323 53.7677 37.0934 52.3377C36.5622 51.432 34.8706 50.6945 33.2343 49.9813C30.0309 48.5847 25.6429 46.6718 25.6199 41.4288C25.6153 40.4736 26.3862 39.6969 27.3403 39.6923C27.3426 39.6923 27.346 39.6923 27.3484 39.6923C28.3002 39.6923 29.0722 40.4609 29.0768 41.4127C29.0895 44.2013 31.1786 45.3133 34.6171 46.8124C36.7604 47.7469 38.9763 48.7126 40.0767 50.5897C42.1336 54.0973 40.064 56.9688 38.5534 59.0649C37.136 61.0307 36.2972 62.3155 36.8941 63.8988C38.2826 67.5896 51.276 68.8456 57.5203 69.4506C59.6325 69.6546 61.4566 69.8309 62.685 70.0394C77.1257 72.4904 78.5107 83.2103 78.5626 83.6654C78.6709 84.6138 77.9899 85.47 77.0415 85.5783C76.9747 85.5852 76.9079 85.5886 76.8422 85.5886Z" fill="#999999"/>
</svg>
