<svg width="31" height="32" viewBox="0 0 31 32" fill="none" xmlns="http://www.w3.org/2000/svg">
<path d="M1.29668 31.4387C0.909247 31.4387 0.650957 31.3093 0.392667 31.0507C0.00523274 30.6628 -0.123912 30.1456 0.134378 29.6283L4.00872 20.5766C4.00872 20.4473 4.13787 20.3179 4.26701 20.1886L22.6056 1.82651C24.4136 0.0161626 27.6422 0.0161626 29.5794 1.82651C30.4834 2.861 31 4.02479 31 5.3179C31 6.61101 30.4834 7.90411 29.5794 8.80929L11.2408 27.1714C11.1117 27.3007 10.9825 27.43 10.8534 27.43L1.81326 31.3093C1.68412 31.4387 1.42583 31.4387 1.29668 31.4387ZM6.20419 21.8697L3.75043 27.6887L9.56195 25.2317L27.6422 7.12825C28.1588 6.61101 28.4171 5.96445 28.4171 5.3179C28.4171 4.67135 28.1588 4.1541 27.7714 3.63686C26.7382 2.60238 25.3176 2.73169 24.4136 3.63686L6.20419 21.8697Z" fill="white"/>
<path d="M10.3369 27.5599C9.94942 27.5599 9.69113 27.4306 9.43284 27.172L4.26707 21.9996C3.75049 21.4823 3.75049 20.7064 4.26707 20.1892C4.78365 19.672 5.55851 19.672 6.07509 20.1892L11.2409 25.3616C11.7574 25.8789 11.7574 26.6547 11.2409 27.172C10.9826 27.4306 10.7243 27.5599 10.3369 27.5599Z" fill="white"/>
<path d="M26.48 10.1025C26.0925 10.1025 25.8342 9.97317 25.576 9.71454L21.0559 5.18865C20.5393 4.6714 20.5393 3.89554 21.0559 3.37829C21.5725 2.86105 22.3473 2.86105 22.8639 3.37829L27.384 7.90419C27.9006 8.42143 27.9006 9.1973 27.384 9.71454C27.1257 9.97317 26.8674 10.1025 26.48 10.1025Z" fill="white"/>
</svg>
